<svg xmlns="http://www.w3.org/2000/svg" viewBox="0 0 100 100">
<path d="M48 64 C28 74 14 60 8 40 C22 46 36 54 50 68 Z" fill="#6b7280"/>
<path d="M52 64 C72 74 86 60 92 40 C78 46 64 54 50 68 Z" fill="#9ca3af"/>
<ellipse cx="52" cy="58" rx="25" ry="23" fill="#6b7280"/>
<path d="M40 60 Q52 86 64 60 Q58 74 46 74 Q39 68 40 60 Z" fill="#b91c1c"/>
<circle cx="60" cy="36" r="17" fill="#6b7280"/>
<path d="M51 24 Q55 30 60 25 Q64 31 68 26 Q71 32 75 27" stroke="#4b5563" stroke-width="4" fill="none" stroke-linecap="round"/>
<path d="M75 38 L90 39 L75 44 Z" fill="#eab308"/>
<path d="M62 31 L67 36 M67 31 L62 36" stroke="#111827" stroke-width="2.5" stroke-linecap="round"/>
<path d="M45 82 L43 92 M55 82 L57 92" stroke="#78350f" stroke-width="3" stroke-linecap="round"/>
</svg>
