<svg width="500" height="500" viewBox="0 0 500 500" xmlns="http://www.w3.org/2000/svg">
    <circle cx="250" cy="250" r="230" fill="#FFF3E0" />

    <path d="M 240 320 Q 175 435 220 485 Q 250 420 260 320 Z" fill="#2E7D32" />
    <path d="M 260 320 Q 325 425 270 495 Q 240 400 240 320 Z" fill="#4CAF50" />

    <path d="M 220 320 L 220 340 L 205 345" fill="none" stroke="#FFB300" stroke-width="6" stroke-linecap="round" stroke-linejoin="round" />
    <path d="M 220 340 L 230 345" fill="none" stroke="#FFB300" stroke-width="6" stroke-linecap="round" stroke-linejoin="round" />
    <path d="M 280 320 L 280 340 L 295 345" fill="none" stroke="#FFB300" stroke-width="6" stroke-linecap="round" stroke-linejoin="round" />
    <path d="M 280 340 L 270 345" fill="none" stroke="#FFB300" stroke-width="6" stroke-linecap="round" stroke-linejoin="round" />

    <ellipse cx="250" cy="260" rx="70" ry="80" fill="#4CAF50" />

    <ellipse cx="250" cy="285" rx="50" ry="55" fill="#E53935" />

    <path d="M 185 240 C 135 258, 148 322, 185 300 Z" fill="#388E3C" />
    <path d="M 315 240 C 365 258, 352 322, 315 300 Z" fill="#388E3C" />

    <circle cx="250" cy="170" r="65" fill="#4CAF50" />

    <circle cx="225" cy="115" r="18" fill="#4CAF50" />
    <circle cx="250" cy="100" r="22" fill="#4CAF50" />
    <circle cx="275" cy="115" r="18" fill="#4CAF50" />

    <path d="M 203 160 Q 220 142 237 160" fill="none" stroke="#212121" stroke-width="7" stroke-linecap="round" />
    <path d="M 263 160 Q 280 142 297 160" fill="none" stroke="#212121" stroke-width="7" stroke-linecap="round" />

    <path d="M 230 178 Q 250 210 270 178 Q 250 195 230 178 Z" fill="#FFC107" />
    <path d="M 230 178 Q 250 166 270 178 Z" fill="#FFB300" />

    <ellipse cx="195" cy="185" rx="12" ry="7" fill="#F48FB1" opacity="0.7"/>
    <ellipse cx="305" cy="185" rx="12" ry="7" fill="#F48FB1" opacity="0.7"/>

    <path d="M 148 95 l 9 9 M 352 95 l -9 9 M 175 65 l 6 10 M 325 65 l -6 10" stroke="#FFC107" stroke-width="5" stroke-linecap="round" />
</svg>
