<svg width="500" height="500" viewBox="0 0 500 500" xmlns="http://www.w3.org/2000/svg">
    <circle cx="250" cy="250" r="230" fill="#FFF3E0" />

    <path d="M 240 320 Q 180 430 220 480 Q 250 420 260 320 Z" fill="#2E7D32" />
    <path d="M 260 320 Q 320 420 270 490 Q 240 400 240 320 Z" fill="#4CAF50" />

    <path d="M 220 320 L 220 340 L 205 345" fill="none" stroke="#FFB300" stroke-width="6" stroke-linecap="round" stroke-linejoin="round" />
    <path d="M 220 340 L 230 345" fill="none" stroke="#FFB300" stroke-width="6" stroke-linecap="round" stroke-linejoin="round" />
    <path d="M 280 320 L 280 340 L 295 345" fill="none" stroke="#FFB300" stroke-width="6" stroke-linecap="round" stroke-linejoin="round" />
    <path d="M 280 340 L 270 345" fill="none" stroke="#FFB300" stroke-width="6" stroke-linecap="round" stroke-linejoin="round" />

    <ellipse cx="250" cy="260" rx="70" ry="80" fill="#4CAF50" />

    <ellipse cx="250" cy="285" rx="50" ry="55" fill="#E53935" />

    <path d="M 185 240 C 140 260, 150 320, 185 300 Z" fill="#388E3C" />
    <path d="M 315 240 C 360 260, 350 320, 315 300 Z" fill="#388E3C" />

    <circle cx="250" cy="170" r="65" fill="#4CAF50" />

    <circle cx="225" cy="115" r="18" fill="#4CAF50" />
    <circle cx="250" cy="100" r="22" fill="#4CAF50" />
    <circle cx="275" cy="115" r="18" fill="#4CAF50" />

    <circle cx="220" cy="160" r="18" fill="#FFFFFF" />
    <circle cx="280" cy="160" r="18" fill="#FFFFFF" />
    <circle cx="224" cy="152" r="8" fill="#212121" />
    <circle cx="284" cy="152" r="8" fill="#212121" />
    <circle cx="221" cy="149" r="3.5" fill="#FFFFFF" />
    <circle cx="281" cy="149" r="3.5" fill="#FFFFFF" />

    <path d="M 238 186 Q 250 180 262 186" fill="none" stroke="#212121" stroke-width="5" stroke-linecap="round" />

    <ellipse cx="195" cy="180" rx="10" ry="6" fill="#F48FB1" opacity="0.6"/>
    <ellipse cx="305" cy="180" rx="10" ry="6" fill="#F48FB1" opacity="0.6"/>

    <circle cx="345" cy="95" r="9" fill="#FFC107"><animate attributeName="opacity" values="1;0.2;1" dur="1.2s" repeatCount="indefinite"/></circle>
    <circle cx="370" cy="130" r="6" fill="#FFC107"><animate attributeName="opacity" values="0.2;1;0.2" dur="1.2s" repeatCount="indefinite"/></circle>
    <circle cx="390" cy="160" r="4" fill="#FFC107"><animate attributeName="opacity" values="1;0.2;1" dur="1.2s" repeatCount="indefinite"/></circle>
</svg>
